<svg id="Capa_1" data-name="Capa 1" xmlns="http://www.w3.org/2000/svg" viewBox="0 0 219.34 255.51"><defs><style>.cls-1,.cls-5{fill:#2f2e40;}.cls-1{stroke:#c33839;}.cls-1,.cls-4,.cls-5{stroke-miterlimit:10;stroke-width:3px;}.cls-2{fill:#fff;}.cls-3{fill:#3e3c55;}.cls-4{fill:#59599c;stroke:#fff;}.cls-5{stroke:#fbf6f7;}</style></defs><title>logo</title><circle class="cls-1" cx="128.57" cy="121.01" r="27"/><path class="cls-1" d="M340.44,414.58c0,7.73-20.72,29.5-42.81,29.5s-42-15.27-42-23,19.91-5,42-5S340.44,406.84,340.44,414.58Z" transform="translate(-167.87 -251.57)"/><path class="cls-1" d="M306.49,497.58h-.05v-.5A2.12,2.12,0,0,0,306.49,497.58Z" transform="translate(-167.87 -251.57)"/><circle class="cls-2" cx="128.57" cy="121.01" r="27"/><circle class="cls-3" cx="128.57" cy="121.01" r="9"/><path class="cls-4" d="M327.21,320.68c-7.79,9.56-22.68,14.92-41.27,19.07-19.15,4.28-37.81,6.28-50.95.8-8.5-3.54-14.69-10.22-17.19-21.44-6.38-28.57,14-57.44,45.55-64.48s62.26,10.41,68.64,39C334.61,305.34,332.63,314,327.21,320.68Z" transform="translate(-167.87 -251.57)"/><path class="cls-5" d="M381.56,296c-6.4-2.44-17.9,12.09-25.69,32.47-1.36,3.56-2.52,7.06-3.46,10.43a79,79,0,0,0-25.2-18.24c-7.79,9.56-22.68,14.92-41.27,19.07-19.15,4.28-37.81,6.28-50.95.8a79.17,79.17,0,0,0-9.1,12.73,113.14,113.14,0,0,0-15.12-8.57c-19.71-9.34-38.07-11.91-41-5.72s10.66,18.78,30.37,28.13a113.15,113.15,0,0,0,17.55,6.68,79.11,79.11,0,0,0,40.75,89.12v34.66h.05a2.12,2.12,0,0,0-.05.5c0,4.14,8.95,7.5,20,7.5s20-3.36,20-7.5c0-3.64-6.87-6.66-16-7.35V470.67a79.58,79.58,0,0,0,24,0v26.41a2.12,2.12,0,0,0,.05.5c.67,3.91,9.35,7,19.95,7,11,0,20-3.36,20-7.5,0-3.64-6.87-6.66-16-7.35V462.92a79.06,79.06,0,0,0,36.31-102.19A101.14,101.14,0,0,0,379,337.35C386.83,317,388,298.47,381.56,296Zm-85.12,49.56a27,27,0,1,1-27,27A27,27,0,0,1,296.44,345.58Zm1.19,98.5c-22.09,0-42-15.27-42-23s19.91-5,42-5,42.81-9.24,42.81-1.5S319.72,444.08,297.63,444.08Z" transform="translate(-167.87 -251.57)"/><path class="cls-2" d="M340.44,414.58c0,7.73-20.72,29.5-42.81,29.5s-42-15.27-42-23,19.91-5,42-5S340.44,406.84,340.44,414.58Z" transform="translate(-167.87 -251.57)"/></svg>